#!OML:ASF F:\VICON\USERDATA\INSTALL\rory3\rory3.ASF
:FULLY-SPECIFIED
:DEGREES
741
root 2.35131 16.0089 -4.65681 34.7913 -54.9563 -10.4726
lowerback -17.5989 2.80032 -1.44406
upperback -11.5939 3.41856 1.16862
thorax -2.75268 1.65951 2.55254
lowerneck -15.3782 -3.23989 -2.65282
upperneck 28.9561 -6.72185 7.58519
head 12.5194 -2.45904 2.28273
rclavicle -1.65538e-013 -3.97569e-014
rhumerus -56.6317 -41.5834 -36.912
rradius 24.1302
rwrist -5.24566
rhand -2.56427 9.97215
rfingers 7.12502
rthumb 23.1321 -18.6591
lclavicle -1.65538e-013 -3.97569e-014
lhumerus -60.5349 31.6656 48.6677
lradius 30.2065
lwrist -3.89253
lhand -0.116002 21.8779
lfingers 7.12502
lthumb 25.4793 50.1945
rfemur 163.988 -189.169 -154.169
rtibia 36.7917
rfoot -33.4443 -24.6723
rtoes 19.4852
lfemur -66.0616 23.902 -38.9419
ltibia 56.7896
lfoot -43.1862 32.193
ltoes 15.9714
742
root 2.3296 16.0917 -4.62122 34.5702 -55.0913 -10.2005
lowerback -17.5246 2.77824 -1.61526
upperback -11.5655 3.41524 1.15268
thorax -2.77013 1.66795 2.62815
lowerneck -15.2255 -3.25969 -2.73164
upperneck 28.8427 -6.70606 7.55402
head 12.4412 -2.47069 2.28669
rclavicle 4.57205e-015 -1.47101e-014
rhumerus -55.5776 -41.086 -38.0703
rradius 24.7973
rwrist -6.32222
rhand -2.4136 9.76428
rfingers 7.12502
rthumb 23.2766 -18.8488
lclavicle 4.57205e-015 -1.47101e-014
lhumerus -59.6425 31.6274 49.1319
lradius 30.6149
lwrist -3.60833
lhand -0.787946 19.6945
lfingers 7.12502
lthumb 24.8354 48.1015
rfemur 163.63 -189.192 -154.556
rtibia 37.0812
rfoot -31.9404 -25.2912
rtoes 20.0362
lfemur -64.8433 23.6317 -38.8652
ltibia 55.3704
lfoot -43.2177 32.4203
ltoes 16.2048
743
root 2.31206 16.17 -4.58714 34.0398 -55.3352 -9.53724
lowerback -17.5313 2.59687 -1.96815
upperback -11.4243 3.23139 1.08162
thorax -2.61935 1.59118 2.7289
lowerneck -15.2465 -3.06261 -2.48336
upperneck 28.7825 -6.42445 7.37551
head 12.3861 -2.34065 2.21812
rclavicle -2.40529e-014 6.16232e-015
rhumerus -54.3821 -40.952 -39.2908
rradius 25.409
rwrist -6.76451
rhand -2.08493 9.85054
rfingers 7.12502
rthumb 23.5919 -18.7223
lclavicle -2.40529e-014 6.16232e-015
lhumerus -58.5166 31.7459 49.5513
lradius 31.0964
lwrist -2.59568
lhand -1.28882 18.4639
lfingers 7.12502
lthumb 24.3553 46.9363
rfemur 163.203 -189.171 -155.203
rtibia 37.3914
rfoot -29.9943 -25.9891
rtoes 20.0574
lfemur -63.6012 23.239 -38.9985
ltibia 53.9221
lfoot -43.5328 32.588
ltoes 16.5979
744
root 2.29365 16.235 -4.5455 33.8015 -55.1183 -9.39669
lowerback -17.41 2.39054 -1.91432
upperback -11.3288 2.95713 1.22968
thorax -2.56523 1.45524 2.81314
lowerneck -15.1114 -2.91173 -2.44894
upperneck 28.7341 -6.16933 7.24719
head 12.3146 -2.24401 2.20328
rclavicle -6.66923e-014 -7.15625e-015
rhumerus -53.0008 -40.193 -40.7717
rradius 26.1749
rwrist -7.84708
rhand -1.81157 9.86795
rfingers 7.12502
rthumb 23.8541 -18.6708
lclavicle -6.66923e-014 -7.15625e-015
lhumerus -57.4231 31.5466 50.3673
lradius 31.9254
lwrist -1.0511
lhand -1.72236 18.1086
lfingers 7.12502
lthumb 23.9397 46.6362
rfemur 163.02 -189.043 -155.282
rtibia 37.6403
rfoot -28.3688 -26.7818
rtoes 21.0244
lfemur -62.195 22.6292 -38.4846
ltibia 52.5446
lfoot -44.1255 32.3645
ltoes 17.9541
745
root 2.2732 16.3009 -4.5083 34.037 -54.6853 -9.91428
lowerback -17.1751 2.25743 -1.46137
upperback -11.2733 2.72339 1.52206
thorax -2.60076 1.32405 2.82605
lowerneck -14.8626 -2.85736 -2.65369
upperneck 28.6574 -6.01263 7.20209
head 12.2254 -2.2104 2.24674
rclavicle 9.35903e-014 5.46658e-014
rhumerus -51.685 -39.3118 -42.1577
rradius 26.9415
rwrist -8.99156
rhand -1.94084 9.73401
rfingers 7.12502
rthumb 23.7301 -18.8209
lclavicle 9.35903e-014 5.46658e-014
lhumerus -56.672 31.3359 51.0769
lradius 33.0995
lwrist -0.0965877
lhand -1.84507 17.7516
lfingers 7.12502
lthumb 23.822 46.2946
rfemur 162.962 -189.016 -154.869
rtibia 37.7958
rfoot -26.4222 -28.1171
rtoes 21.2318
lfemur -60.7893 21.9497 -37.413
ltibia 51.248
lfoot -44.8624 32.1426
ltoes 19.1939
746
root 2.24894 16.373 -4.46763 34.5605 -54.5279 -10.7173
lowerback -17.198 2.24347 -0.755365
upperback -11.0569 2.61602 1.61252
thorax -2.31251 1.23275 2.51423
lowerneck -14.8568 -2.77189 -2.5839
upperneck 28.5741 -5.92152 7.26715
head 12.1856 -2.15603 2.27171
rclavicle 4.63665e-014 1.90833e-014
rhumerus -50.3506 -38.8408 -43.7053
rradius 27.5053
rwrist -9.6139
rhand -1.76273 9.81817
rfingers 7.12502
rthumb 23.9009 -18.7145
lclavicle 4.63665e-014 1.90833e-014
lhumerus -55.7063 31.3203 51.3625
lradius 34.2454
lwrist 0.791444
lhand -1.67272 17.3974
lfingers 7.12502
lthumb 23.9873 45.9188
rfemur 162.965 -188.894 -154.53
rtibia 37.7142
rfoot -24.2623 -28.8396
rtoes 21.5322
lfemur -59.5604 21.3126 -36.2229
ltibia 50.1932
lfoot -45.9314 32.0613
ltoes 20.7602
747
root 2.22004 16.4396 -4.41328 35.2798 -54.687 -11.4078
lowerback -17.6874 2.35198 -0.195349
upperback -10.8964 2.67217 1.63786
thorax -1.86154 1.22747 2.25666
lowerneck -14.633 -2.69694 -2.50731
upperneck 28.3031 -5.83339 7.3447
head 12.0265 -2.10892 2.29826
rclavicle -5.36097e-014 -6.71892e-014
rhumerus -49.3728 -38.4749 -44.7443
rradius 28.1119
rwrist -10.1754
rhand -1.14943 9.97168
rfingers 7.12502
rthumb 24.489 -18.4827
lclavicle -5.36097e-014 -6.71892e-014
lhumerus -54.6019 31.1507 51.7604
lradius 35.413
lwrist 1.98823
lhand -1.45404 17.4242
lfingers 7.12502
lthumb 24.197 45.9177
rfemur 162.645 -188.632 -154.544
rtibia 37.7193
rfoot -21.9153 -29.3482
rtoes 21.1203
lfemur -58.5662 20.8547 -35.486
ltibia 49.089
lfoot -47.291 31.4043
ltoes 23.0489
748
root 2.20195 16.4883 -4.38865 36.1678 -53.4951 -13.0815
lowerback -17.1416 2.38376 1.2546
upperback -10.7456 2.53242 1.96007
thorax -1.92153 1.09976 1.74226
lowerneck -14.5727 -2.68975 -2.28675
upperneck 28.2233 -5.84514 7.24434
head 11.9733 -2.10555 2.21954
rclavicle 2.27733e-014 -6.65929e-014
rhumerus -48.9007 -38.5064 -45.1697
rradius 28.7735
rwrist -10.7359
rhand -0.429161 10.2128
rfingers 7.12502
rthumb 25.1792 -18.1463
lclavicle 2.27733e-014 -6.65929e-014
lhumerus -53.2119 30.6266 52.495
lradius 36.7148
lwrist 3.13854
lhand -1.37416 18.0914
lfingers 7.12502
lthumb 24.2735 46.5747
rfemur 162.983 -188.22 -153.028
rtibia 37.8158
rfoot -20.34 -29.9764
rtoes 21.5895
lfemur -57.165 20.06 -33.3336
ltibia 48.072
lfoot -47.9485 31.3029
ltoes 24.3849
749
root 2.17985 16.56 -4.35328 35.4049 -54.3491 -11.9154
lowerback -17.4005 2.35662 0.303414
upperback -10.5986 2.62805 1.67669
thorax -1.66035 1.18757 2.00458
lowerneck -14.8911 -2.65192 -2.031
upperneck 28.3614 -5.8298 7.10486
head 12.0808 -2.07737 2.12432
rclavicle -1.47039e-013 -2.80286e-014
rhumerus -48.305 -39.0868 -45.5448
rradius 29.2817
rwrist -10.5658
rhand -0.12413 10.5
rfingers 7.12502
rthumb 25.4715 -17.8178
lclavicle -1.47039e-013 -2.80286e-014
lhumerus -51.9074 30.2766 53.1372
lradius 37.8465
lwrist 3.84433
lhand -1.94209 17.201
lfingers 7.12502
lthumb 23.7289 45.756
rfemur 162.357 -189.031 -154.332
rtibia 38.1817
rfoot -19.2507 -30.46
rtoes 23.3491
lfemur -56.1511 19.5783 -34.0138
ltibia 46.6637
lfoot -48.393 32.0161
ltoes 24.596
750
root 2.16418 16.6239 -4.33585 34.3685 -55.0862 -10.4353
lowerback -17.3538 2.21436 -1.01116
upperback -10.6724 2.62487 1.6463
thorax -1.82986 1.25023 2.70823
lowerneck -14.5244 -2.70637 -2.63709
upperneck 28.2155 -5.7568 7.20522
head 11.9622 -2.10875 2.27914
rclavicle 1.25483e-015 -1.19271e-015
rhumerus -47.5723 -38.669 -45.9026
rradius 29.8072
rwrist -10.7715
rhand -0.039752 10.6949
rfingers 7.12502
rthumb 25.5523 -17.6113
lclavicle 1.25483e-015 -1.19271e-015
lhumerus -51.1705 29.9499 53.8182
lradius 38.4708
lwrist 4.18057
lhand -2.82883 14.5531
lfingers 7.12502
lthumb 22.8782 43.2159
rfemur 161.747 -190.062 -155.687
rtibia 38.4053
rfoot -19.2296 -30.9125
rtoes 26.3136
lfemur -55.2019 18.6403 -34.5561
ltibia 45.3973
lfoot -49.4033 32.406
ltoes 25.2759
751
root 2.14698 16.6806 -4.31286 34.0184 -55.2762 -9.95208
lowerback -17.3346 1.90247 -1.538
upperback -10.4942 2.29518 1.68997
thorax -1.65551 1.11036 3.00444
lowerneck -14.7055 -2.52027 -2.15336
upperneck 28.0819 -5.52378 6.9436
head 11.9098 -1.98156 2.12771
rclavicle -4.83916e-014 4.96962e-015
rhumerus -46.1936 -38.3039 -47.2907
rradius 30.1931
rwrist -10.7992
rhand 0.0445025 11.0184
rfingers 7.12502
rthumb 25.633 -17.2762
lclavicle -4.83916e-014 4.96962e-015
lhumerus -50.1917 30.0767 53.7934
lradius 39.1178
lwrist 4.41966
lhand -2.83131 13.167
lfingers 7.12502
lthumb 22.8758 41.8302
rfemur 161.371 -189.863 -156.248
rtibia 38.5231
rfoot -17.9629 -30.8944
rtoes 26.7925
lfemur -54.1279 17.4874 -34.2083
ltibia 44.1773
lfoot -50.6238 32.7313
ltoes 26.1269
752
root 2.11943 16.7272 -4.28102 35.4636 -54.3309 -12.2486
lowerback -16.8219 2.12739 -0.106802
upperback -10.511 2.39673 2.21221
thorax -1.90178 1.11251 2.74528
lowerneck -14.1724 -2.66592 -2.43762
upperneck 27.9565 -5.65873 6.96675
head 11.767 -2.08592 2.16831
rclavicle -9.04346e-014 -6.7388e-014
rhumerus -45.958 -37.4464 -47.4455
rradius 30.819
rwrist -11.5341
rhand 0.240315 11.2876
rfingers 7.12502
rthumb 25.8205 -16.9799
lclavicle -9.04346e-014 -6.7388e-014
lhumerus -49.3365 29.3581 54.3553
lradius 40.275
lwrist 4.2997
lhand -1.87054 14.0612
lfingers 7.12502
lthumb 23.7976 42.6074
rfemur 161.849 -189.308 -154.633
rtibia 38.3895
rfoot -16.6267 -30.6557
rtoes 27.4319
lfemur -52.7769 16.258 -31.5017
ltibia 43.3349
lfoot -52.2783 32.8159
ltoes 27.2232
753
root 2.08085 16.7702 -4.22357 36.3916 -53.9962 -13.5729
lowerback -17.0995 2.295 0.918468
upperback -10.3045 2.46668 2.41511
thorax -1.50213 1.10289 2.40622
lowerneck -14.0252 -2.67965 -2.51442
upperneck 27.8375 -5.6684 7.03387
head 11.6955 -2.09571 2.20479
rclavicle 5.46658e-014 -2.68359e-014
rhumerus -45.3309 -37.005 -47.9264
rradius 31.3079
rwrist -12.0746
rhand 0.75209 11.4369
rfingers 7.12502
rthumb 26.3105 -16.7584
lclavicle 5.46658e-014 -2.68359e-014
lhumerus -48.3747 29.1036 54.5777
lradius 41.8257
lwrist 4.30417
lhand -0.245383 16.3956
lfingers 7.12502
lthumb 25.3553 44.7299
rfemur 162.263 -189.506 -153.998
rtibia 37.9759
rfoot -16.4447 -30.176
rtoes 30.7833
lfemur -51.6984 14.9721 -29.6747
ltibia 42.7587
lfoot -54.4897 32.4243
ltoes 28.5296
